<?xml version="1.0" standalone="no"?>
<!DOCTYPE svg PUBLIC "-//W3C//DTD SVG 20010904//EN"
 "http://www.w3.org/TR/2001/REC-SVG-20010904/DTD/svg10.dtd">
<svg version="1.0" xmlns="http://www.w3.org/2000/svg"
 width="260.000000pt" height="260.000000pt" viewBox="0 0 260.000000 260.000000"
 preserveAspectRatio="xMidYMid meet">
<metadata>
Created by potrace 1.11, written by Peter Selinger 2001-2013
</metadata>
<g transform="translate(0.000000,260.000000) scale(0.100000,-0.100000)"
fill="#000000" stroke="none">
<path d="M781 1880 c-147 -54 -231 -167 -271 -360 -25 -119 -25 -200 -1 -317
34 -162 108 -270 233 -335 61 -32 66 -33 183 -33 110 0 125 3 179 28 32 16 85
48 118 73 l58 45 -2 197 -3 197 -177 3 -178 2 0 -65 0 -65 125 0 125 0 0 -94
0 -94 -35 -26 c-67 -51 -140 -78 -214 -78 -76 0 -124 17 -182 63 -52 41 -85
99 -109 194 -60 236 25 484 186 545 140 52 274 -6 326 -143 25 -63 30 -65 100
-38 25 9 26 12 17 53 -24 107 -92 196 -179 236 -77 36 -221 41 -299 12z"/>
<path d="M1432 1363 l3 -518 210 0 c176 0 218 3 260 18 61 22 108 66 143 132
22 43 26 63 26 145 1 82 -2 102 -24 144 -15 30 -42 62 -67 80 -24 16 -43 33
-43 36 0 4 9 15 21 26 12 10 33 39 47 63 22 38 26 56 26 125 -1 94 -15 135
-69 195 -56 62 -99 71 -337 71 l-198 0 2 -517z m413 377 c47 -18 69 -58 73
-128 3 -58 0 -72 -20 -102 -33 -48 -71 -59 -220 -59 l-128 -1 0 150 0 149 83
4 c92 4 182 -2 212 -13z m42 -446 c15 -11 38 -40 51 -65 47 -89 7 -210 -80
-243 -34 -13 -71 -16 -173 -14 l-130 3 -3 174 -2 173 154 -3 c137 -4 158 -6
183 -25z"/>
</g>
</svg>
